<svg id="ac_unit_black_24dp" xmlns="http://www.w3.org/2000/svg" width="24" height="24" viewBox="0 0 24 24">
  <path id="Path_21" data-name="Path 21" d="M0,0H24V24H0Z" fill="none"/>
  <path id="Path_22" data-name="Path 22" d="M22,11H17.83l3.24-3.24L19.66,6.34,15,11H13V9l4.66-4.66L16.24,2.93,13,6.17V2H11V6.17L7.76,2.93,6.34,4.34,11,9v2H9L4.34,6.34,2.93,7.76,6.17,11H2v2H6.17L2.93,16.24l1.41,1.42L9,13h2v2L6.34,19.66l1.42,1.41L11,17.83V22h2V17.83l3.24,3.24,1.42-1.41L13,15V13h2l4.66,4.66,1.41-1.42L17.83,13H22Z" fill="#17a288"/>
</svg>
