<svg xmlns="http://www.w3.org/2000/svg" width="14" height="8.106" viewBox="0 0 14 8.106">
  <path id="balcony" d="M13.935,85.77a.616.616,0,0,0-.616-.616H13a.707.707,0,0,0-.271-.543.218.218,0,0,0,.078-.419c.5-.248.515-.909.281-1.628l-.459-1.5h.093a.218.218,0,0,0,.049-.431.751.751,0,0,0-.091-1.225h.637a.616.616,0,0,0,0-1.231H.68a.616.616,0,0,0,0,1.231h.637a.751.751,0,0,0-.091,1.225.218.218,0,0,0,.049.431h.093l-.459,1.5c-.234.718-.22,1.379.281,1.628a.218.218,0,0,0,.077.419A.707.707,0,0,0,1,85.154H.68a.616.616,0,0,0-.616.616L0,86.287H14ZM3.828,84.192a.218.218,0,0,0,.077.419.707.707,0,0,0-.271.543H2.413a.707.707,0,0,0-.271-.543.218.218,0,0,0,.078-.419c.5-.248.515-.909.281-1.628l-.459-1.5h.093a.218.218,0,0,0,.049-.431.751.751,0,0,0-.091-1.225H3.956a.751.751,0,0,0-.091,1.225.218.218,0,0,0,.049.431h.093l-.459,1.5C3.313,83.283,3.327,83.944,3.828,84.192Zm2.638,0a.218.218,0,0,0,.077.419.707.707,0,0,0-.271.543H5.051a.707.707,0,0,0-.271-.543.218.218,0,0,0,.078-.419c.5-.248.515-.909.281-1.628l-.459-1.5h.093a.218.218,0,0,0,.049-.431.751.751,0,0,0-.091-1.225H6.594A.751.751,0,0,0,6.5,80.637a.218.218,0,0,0,.049.431h.093l-.459,1.5C5.951,83.283,5.966,83.944,6.466,84.192Zm2.638,0a.218.218,0,0,0,.077.419.707.707,0,0,0-.271.543H7.689a.707.707,0,0,0-.271-.543.218.218,0,0,0,.078-.419c.5-.248.515-.909.281-1.628l-.459-1.5h.093a.218.218,0,0,0,.049-.431.751.751,0,0,0-.091-1.225H9.232a.751.751,0,0,0-.091,1.225.218.218,0,0,0,.049.431h.093l-.459,1.5C8.59,83.283,8.6,83.944,9.1,84.192Zm2.676,0a.218.218,0,0,0,.077.419.707.707,0,0,0-.271.543h-1.26a.707.707,0,0,0-.271-.543.218.218,0,0,0,.078-.419c.5-.248.515-.909.281-1.628l-.459-1.5h.093a.218.218,0,0,0,.049-.431.751.751,0,0,0-.091-1.225h1.9a.751.751,0,0,0-.091,1.225.218.218,0,0,0,.049.431h.093l-.459,1.5C11.266,83.283,11.28,83.944,11.781,84.192Z" transform="translate(0 -78.181)" fill="#17a288"/>
</svg>
