<svg id="bed" xmlns="http://www.w3.org/2000/svg" width="14" height="10.005" viewBox="0 0 14 10.005">
  <g id="Group_68" data-name="Group 68">
    <g id="Group_67" data-name="Group 67" transform="translate(0 0)">
      <path id="Path_56" data-name="Path 56" d="M42.958,78.2h1.456a.291.291,0,0,1-.229-.113.3.3,0,0,1-.053-.252l.181-.732a.874.874,0,0,1,.847-.669h1.874a.879.879,0,0,1,.873.883V77.9a.293.293,0,0,1-.291.294h1.747a.293.293,0,0,1-.291-.294v-.589a.879.879,0,0,1,.873-.883H51.82a.874.874,0,0,1,.847.669l.181.732a.3.3,0,0,1-.053.252.291.291,0,0,1-.229.113h1.456a.293.293,0,0,0,.291-.294V76.138a1.466,1.466,0,0,0-1.456-1.471H44.123a1.466,1.466,0,0,0-1.456,1.471V77.9A.293.293,0,0,0,42.958,78.2Z" transform="translate(-41.49 -74.667)" fill="#17a288"/>
      <path id="Path_57" data-name="Path 57" d="M12.542,224H1.458A1.467,1.467,0,0,0,0,225.471v4.12a.292.292,0,1,0,.583,0v-.883H13.417v.883a.292.292,0,1,0,.583,0v-4.12A1.467,1.467,0,0,0,12.542,224Zm.875,4.12H.583v-.589H13.417v.589Z" transform="translate(0 -219.88)" fill="#17a288"/>
    </g>
  </g>
</svg>
