<svg id="check_circle_outline_black_24dp" xmlns="http://www.w3.org/2000/svg" width="80" height="80" viewBox="0 0 80 80">
  <path id="Path_8614" data-name="Path 8614" d="M0,0H80V80H0Z" fill="none"/>
  <path id="Path_8615" data-name="Path 8615" d="M35.333,2A33.333,33.333,0,1,0,68.667,35.333,33.345,33.345,0,0,0,35.333,2Zm0,60A26.667,26.667,0,1,1,62,35.333,26.7,26.7,0,0,1,35.333,62ZM48.267,22.967l-19.6,19.6L22.4,36.3A3.323,3.323,0,0,0,17.7,41l8.633,8.633a3.32,3.32,0,0,0,4.7,0L53,27.667a3.32,3.32,0,0,0,0-4.7,3.36,3.36,0,0,0-4.733,0Z" transform="translate(4.667 4.667)" fill="#17a288"/>
</svg>
