<svg xmlns="http://www.w3.org/2000/svg" width="16.207" height="15.414" viewBox="0 0 16.207 15.414">
  <g id="eye-off" transform="translate(-0.5 -0.793)">
    <path id="Path_2584" data-name="Path 2584" d="M12.55,13.5a6.866,6.866,0,0,1-4.05,1.4C3.727,14.909,1,9.455,1,9.455A12.58,12.58,0,0,1,4.45,5.4M7.068,4.164A6.218,6.218,0,0,1,8.5,4C13.273,4,16,9.455,16,9.455a12.614,12.614,0,0,1-1.473,2.175M9.945,10.9A2.045,2.045,0,1,1,7.055,8.009" transform="translate(0 -0.955)" fill="none" stroke="#e5e5e5" stroke-linecap="round" stroke-linejoin="round" stroke-width="1"/>
    <line id="Line_20" data-name="Line 20" x2="14" y2="14" transform="translate(2 1.5)" fill="none" stroke="#e5e5e5" stroke-linecap="round" stroke-linejoin="round" stroke-width="1"/>
  </g>
</svg>
