<svg xmlns="http://www.w3.org/2000/svg" width="15.006" height="11.406" viewBox="0 0 15.006 11.406">
  <g id="Group_12" data-name="Group 12" transform="translate(-792.176 89.906)">
    <path id="Path_12" data-name="Path 12" d="M806.882-79.955c-.021.071-.041.141-.063.211a1.351,1.351,0,0,1-1.254.94c-.319.006-.638,0-.956,0H793.9a1.351,1.351,0,0,1-1.4-1.091,1.522,1.522,0,0,1-.026-.29c0-.724,0-1.448,0-2.172a.5.5,0,0,1,.476-.5,1.354,1.354,0,0,0,1.324-1.357,1.354,1.354,0,0,0-1.322-1.343.5.5,0,0,1-.478-.5c0-.722,0-1.444,0-2.166a1.348,1.348,0,0,1,1.385-1.387q5.816,0,11.631,0a1.344,1.344,0,0,1,1.364,1.105.213.213,0,0,0,.024.048v2.56a.558.558,0,0,1-.55.346,1.341,1.341,0,0,0-1.25,1.342,1.341,1.341,0,0,0,1.25,1.342.559.559,0,0,1,.55.346Zm-13.5-2.04c0,.636-.006,1.264,0,1.891a.434.434,0,0,0,.42.4c.075,0,.15,0,.225,0h11.433a.46.46,0,0,0,.52-.518c0-.263,0-.525,0-.788v-.979a2.283,2.283,0,0,1-1.8-2.163,2.222,2.222,0,0,1,.4-1.324,2.273,2.273,0,0,1,1.4-.939c0-.636.007-1.264,0-1.892a.437.437,0,0,0-.476-.4H793.855a.449.449,0,0,0-.478.475c0,.263,0,.525,0,.788v1.022a2.286,2.286,0,0,1,1.8,2.317A2.278,2.278,0,0,1,793.379-81.995Z" transform="translate(0)" fill="#17a288"/>
    <path id="Path_12_-_Outline" data-name="Path 12 - Outline" d="M805.166-78.5l-.558,0H793.9a1.645,1.645,0,0,1-1.694-1.332,1.81,1.81,0,0,1-.032-.348c0-.675,0-1.36,0-2.023v-.151a.793.793,0,0,1,.766-.8,1.055,1.055,0,0,0,1.034-1.056,1.056,1.056,0,0,0-1.032-1.044.8.8,0,0,1-.768-.8v-.223c0-.637,0-1.3,0-1.944a1.652,1.652,0,0,1,1.685-1.686q5.816,0,11.632,0a1.632,1.632,0,0,1,1.648,1.3l.005.01.034.066v2.7l-.025.057a.857.857,0,0,1-.811.526,1.04,1.04,0,0,0-.964,1.042,1.042,1.042,0,0,0,.965,1.042.858.858,0,0,1,.811.526l.025.057v2.667l-.033.11c-.015.049-.029.1-.045.148a1.644,1.644,0,0,1-1.534,1.15C805.451-78.5,805.322-78.5,805.166-78.5Zm-.558-.6.558,0c.153,0,.277,0,.392,0a1.058,1.058,0,0,0,.974-.731c.014-.045.028-.091.041-.137l.008-.028v-2.446c-.044-.072-.108-.109-.265-.117a1.649,1.649,0,0,1-1.535-1.642,1.647,1.647,0,0,1,1.535-1.641c.157-.007.221-.044.265-.117v-2.418a.355.355,0,0,1-.017-.055,1.047,1.047,0,0,0-1.071-.871q-5.816,0-11.631,0a1.053,1.053,0,0,0-1.086,1.088c0,.647,0,1.305,0,1.942v.223a.2.2,0,0,0,.188.2,1.654,1.654,0,0,1,1.612,1.641,1.652,1.652,0,0,1-1.613,1.658.2.2,0,0,0-.186.2v.151c0,.662,0,1.347,0,2.02a1.227,1.227,0,0,0,.021.233,1.053,1.053,0,0,0,1.106.85h10.7ZM793.9-79.4c-.044,0-.08,0-.115,0a.73.73,0,0,1-.7-.695c-.007-.453-.006-.914,0-1.359q0-.267,0-.537v-.238l.232-.054a1.984,1.984,0,0,0,1.566-1.831A2,2,0,0,0,793.3-86.13l-.227-.057v-1.491c0-.185,0-.37,0-.554a.746.746,0,0,1,.778-.772H805.5a.731.731,0,0,1,.776.7c.008.451.007.91.005,1.354q0,.271,0,.543v.238l-.231.054a1.964,1.964,0,0,0-1.225.817,1.91,1.91,0,0,0-.343,1.149,1.977,1.977,0,0,0,1.576,1.877l.225.058v1.451q0,.274,0,.548a.753.753,0,0,1-.82.817H793.9Zm-.22-2.366q0,.156,0,.311c0,.443,0,.9,0,1.348,0,.049.069.1.138.105.046,0,.093,0,.139,0h11.5c.181,0,.22-.039.22-.218s0-.365,0-.547v-1a2.578,2.578,0,0,1-1.8-2.381,2.524,2.524,0,0,1,.448-1.5,2.54,2.54,0,0,1,1.35-1q0-.159,0-.317c0-.441,0-.9,0-1.341,0-.069-.092-.106-.176-.106H793.855c-.122,0-.177.055-.178.177,0,.183,0,.366,0,.548v1.034a2.579,2.579,0,0,1,1.8,2.557A2.568,2.568,0,0,1,793.679-81.767Z" transform="translate(0)" fill="#17a288"/>
    <path id="Path_13" data-name="Path 13" d="M940.7-35.356l-.008,0a.446.446,0,0,1-.261-.574L942.82-42.3a.446.446,0,0,1,.573-.261l.008,0a.446.446,0,0,1,.262.574l-2.386,6.364A.446.446,0,0,1,940.7-35.356Z" transform="translate(-142.369 -45.246)" fill="#17a288"/>
    <path id="Path_13_-_Outline" data-name="Path 13 - Outline" d="M940.859-35.027a.742.742,0,0,1-.261-.047l-.008,0a.741.741,0,0,1-.417-.39.741.741,0,0,1-.019-.571l2.386-6.364a.749.749,0,0,1,.7-.484.743.743,0,0,1,.26.047l.009,0a.741.741,0,0,1,.418.389.741.741,0,0,1,.02.571l-2.387,6.364A.749.749,0,0,1,940.859-35.027Zm2.378-7.259a.147.147,0,0,0-.137.095l-2.386,6.364a.145.145,0,0,0,0,.111.145.145,0,0,0,.081.076l.008,0a.145.145,0,0,0,.051.009.147.147,0,0,0,.137-.095l2.386-6.364a.145.145,0,0,0,0-.112.145.145,0,0,0-.082-.076l-.009,0A.144.144,0,0,0,943.237-42.286Z" transform="translate(-142.369 -45.246)" fill="#17a288"/>
    <path id="Path_14" data-name="Path 14" d="M892.837-11.02a1.353,1.353,0,0,1-1.337-1.361,1.359,1.359,0,0,1,1.366-1.336,1.348,1.348,0,0,1,1.333,1.365A1.342,1.342,0,0,1,892.837-11.02Zm.01-.9a.442.442,0,0,0,.452-.439.449.449,0,0,0-.449-.459.459.459,0,0,0-.449.449A.452.452,0,0,0,892.847-11.921Z" transform="translate(-95.302 -73.035)" fill="#17a288"/>
    <path id="Path_15" data-name="Path 15" d="M1016.767,60.656a1.349,1.349,0,1,1-1.345,1.349A1.353,1.353,0,0,1,1016.767,60.656Zm-.445,1.352a.449.449,0,1,0,.439-.451A.441.441,0,0,0,1016.322,62.008Z" transform="translate(-214.567 -144.614)" fill="#17a288"/>
  </g>
</svg>
