<svg id="Group_2383" data-name="Group 2383" xmlns="http://www.w3.org/2000/svg" width="29.999" height="29.999" viewBox="0 0 29.999 29.999">
  <path id="Rectangle_70" data-name="Rectangle 70" d="M15,0h0A15,15,0,0,1,30,15v0A15,15,0,0,1,15,30h0A15,15,0,0,1,0,15v0A15,15,0,0,1,15,0Z" transform="translate(0 0)" fill="#17a288"/>
  <path id="Path_1425" data-name="Path 1425" d="M162.012,154.166h3.651v-9.144h2.548l.271-3.061h-2.819v-1.743c0-.722.145-1.007.843-1.007h1.976v-3.177h-2.528c-2.717,0-3.942,1.2-3.942,3.487v2.441h-1.9v3.1h1.9Z" transform="translate(-149.298 -130.1)" fill="#fff"/>
</svg>
