<svg id="Group_2380" data-name="Group 2380" xmlns="http://www.w3.org/2000/svg" width="29.999" height="29.999" viewBox="0 0 29.999 29.999">
  <rect id="Rectangle_68" data-name="Rectangle 68" width="29.999" height="29.999" rx="14.999" transform="translate(0 0)" fill="#17a288"/>
  <g id="Group_28" data-name="Group 28" transform="translate(5.531 8.329)">
    <path id="Path_1418" data-name="Path 1418" d="M113.288,300.663a2.38,2.38,0,0,0-1.674-1.685,56.2,56.2,0,0,0-7.4-.4,56.2,56.2,0,0,0-7.4.4,2.38,2.38,0,0,0-1.675,1.685,26.813,26.813,0,0,0,0,9.175,2.381,2.381,0,0,0,1.675,1.685,56.282,56.282,0,0,0,7.4.4,56.286,56.286,0,0,0,7.4-.4,2.382,2.382,0,0,0,1.674-1.685,26.813,26.813,0,0,0,0-9.175Z" transform="translate(-94.747 -298.58)" fill="#fff"/>
    <path id="Path_1419" data-name="Path 1419" d="M106.862,310.413v-5.631l4.949,2.816Z" transform="translate(-99.331 -300.926)" fill="#17a288"/>
  </g>
</svg>
