<svg xmlns="http://www.w3.org/2000/svg" width="75.975" height="72" viewBox="0 0 75.975 72">
  <g id="Group_23" data-name="Group 23" transform="translate(-1116.594 -1264)">
    <g id="Group_22" data-name="Group 22" transform="translate(1116.594 1264)">
      <g id="Group_20" data-name="Group 20" transform="translate(0 0)">
        <path id="Path_138" data-name="Path 138" d="M418.468,45.882c-6.728-6.374-16.61-8.192-21.535-5.953-7.687,3.494-11.978-3.993-11.978-3.993s2.9,9.483,10.081,9.483,11.28,3.494,9.284,7.087-5.79,1.6-5.79,1.6-10.081-9.682-21.56-3.793S357.3,42.224,357.3,42.224c2.1,8.485,3.494,20.063,17.069,24.855s5.49,17.868.2,8.984S359.3,68.976,359.3,68.976c7.486,3.693,8.185,8.185,10.98,19.365a18.209,18.209,0,0,0,5.478,9.172c.209.222.413.446.63.663a33.326,33.326,0,1,0,47.13-47.13c-.321-.32-1.778-1.866-2.272-2.359C421.107,48.546,418.611,46.018,418.468,45.882Z" transform="translate(-357.305 -35.936)" fill="#db7431"/>
        <path id="Path_139" data-name="Path 139" d="M424.239,98.6a29.562,29.562,0,0,1-41.758,0c-.126-.126-.246-.255-.367-.384l-.285-.3-.1-.095a14.458,14.458,0,0,1-4.355-7.288l-.475-1.91c-.648-2.616-1.22-4.928-1.863-6.993,2.069,3.177,4.452,4.1,6.124,4.313a6.658,6.658,0,0,0,5.556-1.948h0A8.63,8.63,0,0,0,388.8,76c-.548-2.416-2.545-6.849-9.754-9.393a18.027,18.027,0,0,1-10.819-9.375,15.408,15.408,0,0,0,13.884-.434c8.868-4.549,16.873,2.848,17.209,3.165l.377.355.472.255c2.007,1.056,6.257,1.994,9.449-1.2a8.625,8.625,0,0,0,1.429-1.915,7.2,7.2,0,0,0-.026-7.3,10.4,10.4,0,0,0-5.486-4.249,21.546,21.546,0,0,1,13.729,5.843c.145.142,1.3,1.316,2.051,2.071l.654.662c.27.268.825.851,1.314,1.364.426.447.809.846.958,1A29.561,29.561,0,0,1,424.239,98.6Z" transform="translate(-360.71 -39.045)" fill="#df912f"/>
        <path id="Path_140" data-name="Path 140" d="M426.07,99.475a25.759,25.759,0,0,1-36.388,0c-.077-.077-.151-.157-.225-.236l-.442-.47-.208-.191a10.723,10.723,0,0,1-3.2-5.266,10.44,10.44,0,0,0,8.307-3.073,12.454,12.454,0,0,0,3.1-11.517c-.722-3.18-3.267-8.984-12.194-12.135a19.566,19.566,0,0,1-2.117-.882,20.817,20.817,0,0,0,5.651-1.967c6.487-3.328,12.613,2.309,12.871,2.55l.741.7.912.491a11.824,11.824,0,0,0,13.935-1.857,12.413,12.413,0,0,0,2.064-2.756,11.333,11.333,0,0,0,1.451-5.537q.41.34.806.713c.2.2,1.125,1.135,1.815,1.834l.831.84c.268.268.777.8,1.233,1.279.487.511.895.934,1.053,1.093A25.759,25.759,0,0,1,426.07,99.475Z" transform="translate(-365.227 -42.607)" fill="#e3a534"/>
      </g>
      <g id="Group_21" data-name="Group 21" transform="translate(36.648 29.571)">
        <path id="Path_141" data-name="Path 141" d="M410.562,83.188c0-2.751,1.413-4.28,4.05-4.28s4.05,1.528,4.05,4.28v8.788c0,2.751-1.413,4.28-4.05,4.28s-4.05-1.528-4.05-4.28Zm2.674,8.98c0,1.184.5,1.681,1.376,1.681.841,0,1.376-.5,1.376-1.681V83c0-1.184-.535-1.681-1.376-1.681-.878,0-1.376.5-1.376,1.681ZM425.158,79.1h2.484L417.1,105.846h-2.484Zm-1.338,13.87c0-2.751,1.414-4.28,4.051-4.28s4.05,1.528,4.05,4.28v8.788c0,2.751-1.414,4.28-4.05,4.28s-4.051-1.528-4.051-4.28Zm2.675,8.98c0,1.184.5,1.68,1.376,1.68.84,0,1.375-.5,1.375-1.68V92.778c0-1.184-.535-1.681-1.375-1.681-.879,0-1.376.5-1.376,1.681Z" transform="translate(-410.562 -78.908)" fill="#263238"/>
      </g>
    </g>
  </g>
</svg>
