<svg id="home_black_24dp" xmlns="http://www.w3.org/2000/svg" width="14" height="14" viewBox="0 0 14 14">
  <path id="Path_5" data-name="Path 5" d="M0,0H14V14H0Z" fill="none"/>
  <path id="Path_6" data-name="Path 6" d="M7,12.477V9.56H9.334v2.917a.585.585,0,0,0,.583.583h1.75a.585.585,0,0,0,.583-.583V8.394h.992a.289.289,0,0,0,.193-.508L8.558,3.494a.588.588,0,0,0-.782,0L2.9,7.886a.29.29,0,0,0,.192.508h.992v4.083a.585.585,0,0,0,.583.583h1.75A.585.585,0,0,0,7,12.477Z" transform="translate(-1.168 -1.394)" fill="#17a288"/>
</svg>
