<svg xmlns="http://www.w3.org/2000/svg" width="13.773" height="16.5" viewBox="0 0 13.773 16.5">
  <g id="map-pin" transform="translate(-2.25 -0.25)">
    <path id="Path_1" data-name="Path 1" d="M9.136.25a6.894,6.894,0,0,1,6.886,6.886c0,5.115-6.206,9.312-6.47,9.488a.75.75,0,0,1-.832,0c-.264-.176-6.47-4.372-6.47-9.488A6.894,6.894,0,0,1,9.136.25Zm0,14.827c1.329-.992,5.387-4.318,5.387-7.941a5.386,5.386,0,0,0-10.773,0C3.75,10.767,7.806,14.087,9.136,15.077Z" fill="#17a288"/>
    <path id="Ellipse_1" data-name="Ellipse 1" d="M2-.75A2.75,2.75,0,1,1-.75,2,2.753,2.753,0,0,1,2-.75Zm0,4A1.25,1.25,0,1,0,.75,2,1.251,1.251,0,0,0,2,3.25Z" transform="translate(7.136 5)" fill="#17a288"/>
  </g>
</svg>
