<svg id="rss_feed_black_24dp" xmlns="http://www.w3.org/2000/svg" width="14" height="14" viewBox="0 0 14 14">
  <path id="Path_10" data-name="Path 10" d="M0,0H14V14H0Z" fill="none"/>
  <circle id="Ellipse_4" data-name="Ellipse 4" cx="1.272" cy="1.272" r="1.272" transform="translate(2.333 9.123)" fill="#979797"/>
  <path id="Path_11" data-name="Path 11" d="M4.927,7.847A.814.814,0,0,0,4,8.664a.838.838,0,0,0,.717.817,4.139,4.139,0,0,1,3.348,3.348.838.838,0,0,0,.817.717.822.822,0,0,0,.823-.927A5.771,5.771,0,0,0,4.927,7.847ZM4.91,4.517A.829.829,0,0,0,4,5.339a.818.818,0,0,0,.741.817A7.431,7.431,0,0,1,11.385,12.8a.819.819,0,0,0,.817.747.834.834,0,0,0,.828-.91,9.078,9.078,0,0,0-8.12-8.12Z" transform="translate(-1.667 -1.88)" fill="#979797"/>
</svg>
