<svg id="shower_black_24dp" xmlns="http://www.w3.org/2000/svg" width="24" height="24" viewBox="0 0 24 24">
  <g id="Group_8" data-name="Group 8">
    <path id="Path_27" data-name="Path 27" d="M0,0H24V24H0Z" fill="none"/>
  </g>
  <g id="Group_9" data-name="Group 9">
    <path id="Path_28" data-name="Path 28" d="M9,17a1,1,0,1,1-1-1A1,1,0,0,1,9,17Zm3-1a1,1,0,1,0,1,1A1,1,0,0,0,12,16Zm4,0a1,1,0,1,0,1,1A1,1,0,0,0,16,16Zm3-4v2H5V12a7,7,0,0,1,6-6.92V3h2V5.08A7,7,0,0,1,19,12Zm-2,0A5,5,0,0,0,7,12ZM8,19a1,1,0,1,0,1,1A1,1,0,0,0,8,19Zm4,0a1,1,0,1,0,1,1A1,1,0,0,0,12,19Zm4,0a1,1,0,1,0,1,1A1,1,0,0,0,16,19Z" fill="#17a288"/>
  </g>
</svg>
