<svg id="XMLID_95_" xmlns="http://www.w3.org/2000/svg" width="12.054" height="12" viewBox="0 0 12.054 12">
  <path id="XMLID_98_" d="M5.98,303.212q-.077.007-.154.007a1.809,1.809,0,0,1-.41-.051l-3.088,3.088a.388.388,0,0,0,0,.549l.8.8a.388.388,0,0,0,.548,0l3.711-3.71-.688-.742Z" transform="translate(-2.161 -295.717)" fill="#17a288"/>
  <path id="XMLID_97_" d="M254.73,3.652a.371.371,0,0,0-.524,0l-2,2a.484.484,0,1,1-.685-.684l1.991-1.991a.386.386,0,0,0-.546-.546l-1.99,1.991a.484.484,0,1,1-.685-.684l2-2a.371.371,0,1,0-.525-.525l-2.251,2.251a2.081,2.081,0,0,0-.537,1.993l1.509,1.509a2.081,2.081,0,0,0,1.993-.538l2.251-2.251A.371.371,0,0,0,254.73,3.652Z" transform="translate(-242.785 -1.104)" fill="#17a288"/>
  <path id="XMLID_96_" d="M1.012,9.056a.408.408,0,0,0-.289-.119.414.414,0,0,0-.068.006.408.408,0,0,0-.3.225,3.557,3.557,0,0,0,.687,4.064l1.915,1.915a1,1,0,0,0,.709.294q.042,0,.085,0l1.112-.095,4.848,5.23A.409.409,0,0,0,10,20.7h.007a.411.411,0,0,0,.29-.119l.83-.83a.409.409,0,0,0,0-.577Z" transform="translate(0 -8.744)" fill="#17a288"/>
</svg>
